<svg xmlns="http://www.w3.org/2000/svg" width="25" height="25" viewBox="0 0 25 25"><path d="M21.33 3.66A12.42 12.42 0 0 0 12.5 0C9.16 0 6.02 1.3 3.66 3.66A12.42 12.42 0 0 0 0 12.5c0 3.34 1.3 6.48 3.66 8.84A12.41 12.41 0 0 0 12.5 25a12 12 0 0 0 5.1-1.03 5.42 5.42 0 0 0 2.73-2.59c.51-1.23.23-2.51-.78-3.52l-.04-.04.05-.05c.72-.75.72-1.75 0-2.48l-1.79-1.78a1.69 1.69 0 0 0-1.22-.55c-.44 0-.87.19-1.23.55l-.93.92-.13-.06c-.11-.06-.22-.11-.3-.17-.94-.59-1.8-1.38-2.62-2.38-.36-.45-.6-.84-.79-1.22.23-.21.45-.44.66-.65l.27-.27c.76-.76.76-1.74 0-2.49l-.88-.88-.3-.31-.6-.6a1.69 1.69 0 0 0-1.21-.53c-.45 0-.87.18-1.23.53v.01l-1.11 1.1c-.45.44-.7.99-.76 1.62-.07.97.21 1.88.43 2.47a14.13 14.13 0 0 0 2.5 4.18 15.32 15.32 0 0 0 5.12 4.01c.76.36 1.77.78 2.91.86h.22a2.6 2.6 0 0 0 2.02-.87l.05-.07.03.03c.66.66.84 1.41.52 2.18-.59 1.4-2.89 2.85-6.7 2.85a11.28 11.28 0 0 1 0-22.54A11.28 11.28 0 0 1 23.36 15.5c-.09.33.1.67.44.77.32.09.66-.11.76-.44a12.48 12.48 0 0 0-3.22-12.17zm-3.68 14.3c-.3.31-.62.45-1.08.45l-.14-.01a6.73 6.73 0 0 1-2.45-.74 14.1 14.1 0 0 1-4.7-3.68 13 13 0 0 1-2.3-3.82 4.54 4.54 0 0 1-.36-1.94c.03-.33.16-.61.4-.84l1.1-1.1c.1-.09.23-.18.37-.18.14 0 .27.09.34.17l.02.02c.2.18.38.37.58.57l.3.31.88.88c.28.27.28.47 0 .75l-.27.27c-.28.28-.53.54-.8.79-.02 0-.02.01-.03.02-.39.39-.25.79-.21.92l.01.04a7.3 7.3 0 0 0 1.07 1.75c.91 1.12 1.86 1.98 2.92 2.65l.41.23.3.16a.85.85 0 0 0 .46.13c.23 0 .44-.09.62-.28l1.1-1.1c.1-.09.22-.19.36-.19.14 0 .26.09.34.18l.01.01 1.78 1.78c.25.25.25.48-.01.75v.01l-.4.38c-.2.2-.41.42-.62.66z"/></svg>