<svg xmlns="http://www.w3.org/2000/svg" width="37" height="37" viewBox="0 0 37 37"><path d="M31.57 5.42A18.39 18.39 0 0 0 18.5 0C13.56 0 8.9 1.93 5.42 5.42A18.38 18.38 0 0 0 0 18.5a18.4 18.4 0 0 0 5.42 13.08A18.39 18.39 0 0 0 18.5 37c2.87 0 5.48-.53 7.56-1.53 1.97-.95 3.4-2.31 4.04-3.83a4.62 4.62 0 0 0-1.17-5.21l-.05-.05.07-.08c1.07-1.12 1.07-2.59-.01-3.67L26.3 20a2.51 2.51 0 0 0-1.8-.82c-.67 0-1.3.28-1.83.81l-1.37 1.37a16 16 0 0 1-4.51-3.87 9.76 9.76 0 0 1-1.18-1.8c.34-.32.66-.65.97-.97l.4-.4c1.13-1.12 1.13-2.57 0-3.68l-1.3-1.31c-.15-.15-.3-.29-.44-.45-.29-.29-.58-.6-.9-.89a2.53 2.53 0 0 0-1.8-.78 2.6 2.6 0 0 0-1.8.78l-.02.01L9.1 9.64a3.73 3.73 0 0 0-1.12 2.39 8.7 8.7 0 0 0 .64 3.66 20.86 20.86 0 0 0 3.7 6.18 22.75 22.75 0 0 0 7.58 5.94c1.12.53 2.62 1.16 4.3 1.27l.32.01c1.18 0 2.18-.43 2.96-1.27l.03-.03a.86.86 0 0 1 .08-.09l.05.04c.97.98 1.24 2.09.77 3.22-.88 2.08-4.28 4.21-9.91 4.21a16.68 16.68 0 0 1 0-33.34 16.68 16.68 0 0 1 16.06 21.12.9.9 0 0 0 .64 1.12.91.91 0 0 0 1.13-.64 18.42 18.42 0 0 0-4.76-18.01zm-5.45 21.16c-.43.46-.92.67-1.6.67l-.2-.01a10.05 10.05 0 0 1-3.63-1.1 20.88 20.88 0 0 1-6.97-5.46 19.12 19.12 0 0 1-3.4-5.64 6.73 6.73 0 0 1-.52-2.87c.05-.5.23-.9.59-1.25l1.64-1.63c.13-.12.32-.27.54-.27.21 0 .4.14.5.26l.03.02c.29.27.56.55.85.85l.46.46 1.3 1.3c.4.41.4.7 0 1.11l-.41.41c-.4.4-.78.79-1.19 1.16l-.04.03c-.57.58-.37 1.17-.3 1.37l.01.06c.35.84.84 1.63 1.59 2.58v.01a17.87 17.87 0 0 0 4.31 3.92c.2.13.41.23.61.33.17.09.32.16.45.25l.08.04c.2.1.4.15.6.15.33 0 .65-.14.91-.41l1.64-1.64c.13-.13.32-.28.53-.28.2 0 .38.14.5.26l.01.02 2.63 2.63c.38.38.38.72-.01 1.12v.01l-.58.57c-.3.3-.62.61-.93.97z"/></svg>