<svg xmlns="http://www.w3.org/2000/svg" width="25" height="26" viewBox="0 0 25 26"><path fill="#ff7c00" d="M21.33 4.66A12.41 12.41 0 0 0 12.5 1C9.16 1 6.02 2.3 3.66 4.66A12.42 12.42 0 0 0 0 13.5c0 3.34 1.3 6.48 3.66 8.84A12.41 12.41 0 0 0 12.5 26c1.94 0 3.7-.36 5.11-1.03a5.37 5.37 0 0 0 2.73-2.6c.5-1.22.22-2.5-.8-3.51l-.03-.04.05-.05c.72-.75.72-1.75 0-2.48l-1.79-1.78a1.7 1.7 0 0 0-1.21-.55c-.45 0-.88.19-1.24.55l-.92.92a1.52 1.52 0 0 0-.14-.06l-.3-.17c-.94-.6-1.8-1.38-2.61-2.38-.36-.45-.61-.84-.8-1.22.24-.21.45-.44.66-.65l.27-.27c.76-.76.76-1.74 0-2.5l-.87-.87-.3-.3c-.2-.2-.4-.41-.62-.61a1.7 1.7 0 0 0-1.2-.53c-.45 0-.87.18-1.23.53L6.14 7.52c-.45.44-.7.99-.75 1.62-.08.97.2 1.88.42 2.47a14.12 14.12 0 0 0 2.5 4.18 15.38 15.38 0 0 0 5.12 4.01 8.1 8.1 0 0 0 2.92.86h.21a2.6 2.6 0 0 0 2.02-.87l.05-.07.03.03c.66.66.84 1.41.52 2.18-.59 1.4-2.89 2.85-6.7 2.85a11.27 11.27 0 0 1 0-22.54A11.27 11.27 0 0 1 23.36 16.5a.62.62 0 0 0 1.2.33 12.5 12.5 0 0 0-3.22-12.17zm-3.68 14.3c-.3.31-.62.45-1.08.45h-.14a6.89 6.89 0 0 1-2.45-.75 14.14 14.14 0 0 1-4.7-3.68 12.98 12.98 0 0 1-2.3-3.82 4.58 4.58 0 0 1-.36-1.94c.04-.33.16-.6.4-.84l1.1-1.1c.1-.09.23-.18.37-.18.15 0 .27.09.35.17l.01.02c.2.18.38.37.58.57l.3.31.89.88c.27.27.27.47 0 .75l-.28.27c-.27.28-.53.54-.8.79l-.03.02c-.39.39-.25.79-.21.92l.01.04c.24.57.57 1.1 1.07 1.75a12.02 12.02 0 0 0 3.33 2.88 3.25 3.25 0 0 1 .36.2c.14.06.27.1.4.1.23 0 .44-.1.62-.29l1.1-1.1c.1-.09.22-.2.37-.2.13 0 .25.1.33.19h.01l1.78 1.79c.25.25.25.48-.01.75a9.3 9.3 0 0 1-.4.4c-.2.2-.41.4-.62.65z"/></svg>